<?xml version="1.0" encoding="utf-8"?>
<!-- Generator: Adobe Illustrator 15.1.0, SVG Export Plug-In . SVG Version: 6.00 Build 0)  -->
<!DOCTYPE svg PUBLIC "-//W3C//DTD SVG 1.1//EN" "http://www.w3.org/Graphics/SVG/1.1/DTD/svg11.dtd">
<svg version="1.1" id="Layer_1" xmlns="http://www.w3.org/2000/svg" xmlns:xlink="http://www.w3.org/1999/xlink" x="0px" y="0px"
	 width="286px" height="300px" viewBox="7.167 0 286 300" enable-background="new 7.167 0 286 300" xml:space="preserve">
<g>
	<g>
		<path fill="#009688" d="M76.854,180.292c6.96-34.153,37.116-59.859,73.323-59.859c36.202,0,66.362,25.699,73.305,59.859h29.924
			c-7.323-50.62-50.584-89.784-103.224-89.784c-52.628,0-95.903,39.164-103.226,89.784H76.854L76.854,180.292z M150.176,60.578
			c8.259,0,14.962-6.703,14.962-14.967V15.683c0-8.26-6.703-14.958-14.962-14.958c-8.263,0-14.967,6.698-14.967,14.958v29.929
			C135.213,53.875,141.913,60.578,150.176,60.578z M287.715,57.693c-5.848-5.844-15.312-5.844-21.16,0l-21.16,21.159
			c-5.848,5.848-5.848,15.317,0,21.165c5.847,5.848,15.313,5.848,21.16,0l21.16-21.165C293.563,73.009,293.563,63.54,287.715,57.693
			z M54.935,78.853L33.774,57.693c-5.847-5.844-15.316-5.844-21.16,0c-5.843,5.847-5.843,15.316,0,21.159l21.16,21.165
			c5.849,5.848,15.313,5.848,21.161,0C60.782,94.17,60.782,84.701,54.935,78.853z M239.96,210.221H60.388
			c-8.26,0-14.963,6.709-14.963,14.961c0,8.262,6.703,14.964,14.963,14.964H239.96c8.258,0,14.963-6.702,14.963-14.964
			C254.923,216.93,248.218,210.221,239.96,210.221z M210.038,270.075H90.321c-8.263,0-14.961,6.702-14.961,14.962
			c0,8.264,6.698,14.963,14.961,14.963h119.717c8.259,0,14.958-6.703,14.958-14.963S218.293,270.075,210.038,270.075z"/>
	</g>
</g>
<path fill="#F0F3BD" d="M239.833,179.834"/>
<g>
	<defs>
		<rect id="SVGID_1_" x="73.167" y="84.5" width="155.332" height="95.334"/>
	</defs>
	<clipPath id="SVGID_2_">
		<use xlink:href="#SVGID_1_"  overflow="visible"/>
	</clipPath>
	<circle clip-path="url(#SVGID_2_)" fill="#F0F3BD" cx="150.167" cy="193.501" r="75.333"/>
</g>
</svg>
