<?xml version="1.0" encoding="utf-8"?>
<!-- Generator: Adobe Illustrator 15.1.0, SVG Export Plug-In . SVG Version: 6.00 Build 0)  -->
<!DOCTYPE svg PUBLIC "-//W3C//DTD SVG 1.1//EN" "http://www.w3.org/Graphics/SVG/1.1/DTD/svg11.dtd">
<svg version="1.1" id="Layer_1" xmlns="http://www.w3.org/2000/svg" xmlns:xlink="http://www.w3.org/1999/xlink" x="0px" y="0px"
	 width="300px" height="300px" viewBox="0 0 300 300" enable-background="new 0 0 300 300" xml:space="preserve">
<g>
	<g>
		<path fill-rule="evenodd" clip-rule="evenodd" fill="#009688" d="M70.534,74.188c10.577-38.652,35.932-70.496,81.027-73.046
			c36.77-2.075,60.699,18.891,76.916,42.095c40.093,0.288,70.081,28.423,70.458,68.709c0.362,38.577-26.72,68.138-59.89,71.188
			c-27.473,2.525-60.742,0-96.292,0c-16.242,0-32.549,0-48.147,0c-18.856,0-39.318,2.27-53.431-1.239
			c-29.795-7.408-52.416-44.662-35.229-79.853C15.923,81.617,40.189,63.804,70.534,74.188z M88.736,76.044
			c-2.132,9.783-0.318,20.698-8.22,22.285c-5.104,1.025-7.97-2.396-10.57-3.715c-3.373-1.711-7.705-3.111-11.155-3.715
			c-41.001-7.172-54.849,53.672-19.963,69.951c12.27,5.723,37.811,3.092,56.954,3.092c30.099,0,63.935,0,93.944,0
			c16.71,0,33.268,1.564,47.56,0c27.041-2.952,45.917-28.762,42.861-57.565c-2.469-23.264-20.891-42.538-44.623-43.949
			c-4.941-0.297-10.364,2.577-15.854,0.617c-5.03-1.793-9.774-14.086-13.504-18.572c-12.144-14.595-32.545-25.918-59.304-22.901
			C114.598,25.207,94.454,49.81,88.736,76.044z"/>
		<path fill-rule="evenodd" clip-rule="evenodd" fill="#F0F3BD" d="M146.862,21.571c26.759-3.017,47.16,8.307,59.304,22.901
			c3.729,4.486,8.474,16.779,13.504,18.572c5.489,1.96,10.912-0.914,15.854-0.617c23.732,1.411,42.154,20.686,44.623,43.949
			c3.056,28.804-15.82,54.613-42.861,57.565c-14.292,1.564-30.85,0-47.56,0c-30.009,0-63.845,0-93.944,0
			c-19.143,0-44.684,2.631-56.954-3.092C3.943,144.571,17.791,83.728,58.792,90.899c3.45,0.604,7.782,2.004,11.155,3.715
			c2.6,1.319,5.466,4.74,10.57,3.715c7.901-1.587,6.088-12.502,8.22-22.285C94.454,49.81,114.598,25.207,146.862,21.571z"/>
	</g>
	<path fill-rule="evenodd" clip-rule="evenodd" fill="#009688" d="M74.644,207.659c-2.312,13.987-3.773,32.277-18.789,32.332
		c-4.366,0.016-9.389-2.803-11.156-5.195C33.588,219.757,57.098,206.33,74.644,207.659z"/>
	<path fill-rule="evenodd" clip-rule="evenodd" fill="#009688" d="M148.038,207.659c-1.392,9.949-2.471,22.835-8.807,28.866
		c-12.429,11.836-30.622-5.879-20.55-19.051C124.432,209.951,135.206,210.035,148.038,207.659z"/>
	<path fill-rule="evenodd" clip-rule="evenodd" fill="#009688" d="M222.02,207.659c-2.564,13.767-4.151,33.696-20.551,32.332
		c-6.297-0.523-10.656-5.515-11.743-9.235C184.752,213.726,206.902,208.63,222.02,207.659z"/>
	<path fill-rule="evenodd" clip-rule="evenodd" fill="#009688" d="M108.111,260.775c-2.857,13.894-3.792,33.726-20.55,32.332
		c-6.338-0.526-10.694-5.648-11.743-9.236C70.766,266.573,93.793,261.672,108.111,260.775z"/>
	<path fill-rule="evenodd" clip-rule="evenodd" fill="#009688" d="M181.506,260.775c-2.286,13.979-3.836,32.278-18.789,32.332
		c-4.367,0.017-9.391-2.806-11.156-5.196C140.446,272.867,163.962,259.45,181.506,260.775z"/>
	<path fill-rule="evenodd" clip-rule="evenodd" fill="#009688" d="M254.899,260.775c-0.152,10.263-3.831,22.004-9.396,28.867
		c-13.902,10.611-29.646-6.385-19.963-19.051C231.082,263.344,243.043,262.769,254.899,260.775z"/>
</g>
</svg>
