<?xml version="1.0" encoding="utf-8"?>
<!-- Generator: Adobe Illustrator 15.1.0, SVG Export Plug-In . SVG Version: 6.00 Build 0)  -->
<!DOCTYPE svg PUBLIC "-//W3C//DTD SVG 1.1//EN" "http://www.w3.org/Graphics/SVG/1.1/DTD/svg11.dtd">
<svg version="1.1" id="Layer_1" xmlns="http://www.w3.org/2000/svg" xmlns:xlink="http://www.w3.org/1999/xlink" x="0px" y="0px"
	 width="300px" height="300px" viewBox="0 0 300 300" enable-background="new 0 0 300 300" xml:space="preserve">
<g>
	<path fill="#F0F3BD" d="M83.655,38.896L55.908,10.914L28.169,38.891c-7.438,7.484-11.533,17.438-11.533,28.032
		c0,21.837,17.621,39.607,39.272,39.607c21.657,0,39.277-17.768,39.277-39.607C95.186,56.33,91.091,46.374,83.655,38.896z"/>
	<g>
		<path fill="#F0F3BD" d="M241.531,145.009l-50.707-51.136l-50.694,51.129c-13.592,13.675-21.077,31.868-21.077,51.227
			c0,39.907,32.203,72.383,71.771,72.383c39.578,0,71.778-32.47,71.778-72.383C262.603,176.87,255.119,158.674,241.531,145.009z"/>
		<path fill="#009688" d="M261.415,125.594l-71.194-71.798l-71.177,71.788C99.959,144.787,89.45,170.328,89.45,197.51
			c0,56.029,45.214,101.627,100.771,101.627C245.788,299.137,291,253.548,291,197.51C291,170.328,280.493,144.781,261.415,125.594z
			 M190.221,267.896c-38.484,0-69.794-31.574-69.794-70.386c0-18.825,7.28-36.527,20.507-49.834l49.287-49.704l49.309,49.714
			c13.22,13.296,20.501,30.999,20.501,49.824C260.03,236.313,228.71,267.896,190.221,267.896z M88.212,32.307L55.679-0.5
			L23.15,32.303C14.423,41.088,9.611,52.766,9.611,65.184c0,25.605,20.664,46.445,46.067,46.445
			c25.402,0,46.068-20.84,46.068-46.445C101.752,52.766,96.939,41.093,88.212,32.307z M55.684,99.93
			c-18.994,0-34.457-15.581-34.457-34.734c0-9.29,3.596-18.022,10.135-24.602l24.322-24.521l24.321,24.521
			c6.534,6.58,10.135,15.312,10.135,24.597C90.14,84.345,74.677,99.93,55.684,99.93z"/>
	</g>
</g>
</svg>
