<?xml version="1.0" encoding="utf-8"?>
<!-- Generator: Adobe Illustrator 15.1.0, SVG Export Plug-In . SVG Version: 6.00 Build 0)  -->
<!DOCTYPE svg PUBLIC "-//W3C//DTD SVG 1.1//EN" "http://www.w3.org/Graphics/SVG/1.1/DTD/svg11.dtd">
<svg version="1.1" id="Layer_1" xmlns="http://www.w3.org/2000/svg" xmlns:xlink="http://www.w3.org/1999/xlink" x="0px" y="0px"
	 width="209.333px" height="210.167px" viewBox="44.5 89.833 209.333 210.167" enable-background="new 44.5 89.833 209.333 210.167"
	 xml:space="preserve">
<g>
	<g>
		<path fill="#009688" d="M75.928,180.443c6.96-34.153,37.116-59.859,73.323-59.859c36.202,0,66.362,25.699,73.306,59.859h29.924
			c-7.324-50.62-50.584-89.784-103.225-89.784c-52.628,0-95.903,39.164-103.226,89.784H75.928L75.928,180.443z M239.035,210.372
			H59.463c-8.26,0-14.963,6.709-14.963,14.961c0,8.262,6.703,14.964,14.963,14.964h179.572c8.258,0,14.963-6.702,14.963-14.964
			C253.998,217.081,247.293,210.372,239.035,210.372z M209.113,270.227H89.396c-8.263,0-14.961,6.702-14.961,14.962
			c0,8.264,6.698,14.963,14.961,14.963h119.717c8.258,0,14.957-6.703,14.957-14.963S217.367,270.227,209.113,270.227z"/>
	</g>
</g>
<path fill="#F0F3BD" d="M239.833,179.834"/>
<g>
	<defs>
		<rect id="SVGID_1_" x="73.167" y="84.5" width="155.332" height="95.334"/>
	</defs>
	<clipPath id="SVGID_2_">
		<use xlink:href="#SVGID_1_"  overflow="visible"/>
	</clipPath>
	<circle clip-path="url(#SVGID_2_)" fill="#F0F3BD" cx="150.167" cy="193.501" r="75.333"/>
</g>
</svg>
