<?xml version="1.0" encoding="utf-8"?>
<!-- Generator: Adobe Illustrator 15.1.0, SVG Export Plug-In . SVG Version: 6.00 Build 0)  -->
<!DOCTYPE svg PUBLIC "-//W3C//DTD SVG 1.1//EN" "http://www.w3.org/Graphics/SVG/1.1/DTD/svg11.dtd">
<svg version="1.1" id="Layer_1" xmlns="http://www.w3.org/2000/svg" xmlns:xlink="http://www.w3.org/1999/xlink" x="0px" y="0px"
	 width="300px" height="300px" viewBox="0 0 300 300" enable-background="new 0 0 300 300" xml:space="preserve">
<g>
	<path fill-rule="evenodd" clip-rule="evenodd" fill="#F0F3BD" d="M149.813,20.332c26.668-2.479,46.991,9.103,58.459,21.507
		c2.416,2.617,7.688,14.627,13.125,16.416c5.193,1.706,11.428-0.68,14.914-0.566c20.621,0.659,35.258,14.263,40.561,22.64
		c7.041,11.116,9.162,33.03,0,46.976c-6.352,9.672-19.99,20.969-36.984,22.639c-14.322,1.41-31.449,0-48.316,0
		c-30.629,0-64.927,0-95.444,0c-23.04,0-46.754,2.87-60.248-3.961c-13.304-6.735-24.082-27.015-14.913-44.713
		c6.99-13.494,30.171-24.972,49.511-14.149c2.929,1.64,3.806,4.391,9.543,3.396c8.193-1.42,6.978-9.642,8.948-18.68
		C94.827,44.982,117.362,23.349,149.813,20.332z"/>
	<g>
		<path fill-rule="evenodd" clip-rule="evenodd" fill="#009688" d="M89.154,258.504c0,3.019,0,6.037,0,9.055
			c4.445-0.707,5.364-4.594,9.988-3.962c8.685,1.186,3.479,12.387-4.112,13.019c2.929,2.988,8.082,2.768,8.812,6.792
			c1.517,8.356-9.268,7.284-14.1,2.829c3.254,13.935-14.991,15.858-11.163,0c-5.35,3.979-15.423,5.588-14.688-2.264
			c0.398-4.256,5.075-4.673,8.813-6.793c-6.283-1.146-13.468-11.864-4.701-13.583c4.469-0.877,6.159,2.792,9.988,3.962
			C76.381,259.076,83.304,251.396,89.154,258.504z"/>
		<path fill-rule="evenodd" clip-rule="evenodd" fill="#009688" d="M229.327,39.575c40.768,0.424,68.088,25.288,70.504,59.994
			c2.627,37.735-25.775,63.817-60.516,67.354c-12.828,1.307-26.986,0.566-42.301,0.566c-27.309,0-56.603,0-86.367,0
			c-28.479,0-62.641,3.074-80.492-5.66c-15.945-7.806-30.503-25.688-28.789-49.24c2.231-30.664,32.3-55.003,70.503-45.278
			c10.657-35.032,35.815-64.325,81.08-66.223C189.438-0.441,213.229,18.23,229.327,39.575z M90.083,71.836
			c-1.94,9.038-0.743,17.26-8.813,18.68c-5.65,0.994-6.515-1.757-9.4-3.396c-19.049-10.822-41.88,0.655-48.765,14.149
			c-9.031,17.698,1.584,37.978,14.688,44.713c13.291,6.831,36.647,3.961,59.339,3.961c30.058,0,63.838,0,94.006,0
			c16.613,0,33.48,1.41,47.588,0c16.738-1.67,30.172-12.967,36.426-22.639c9.025-13.945,6.936-35.859,0-46.976
			c-5.221-8.377-19.637-21.98-39.949-22.64c-3.434-0.113-9.572,2.272-14.688,0.566c-5.355-1.789-10.547-13.799-12.928-16.416
			c-11.295-12.404-31.313-23.985-57.579-21.507C118.048,23.349,95.853,44.982,90.083,71.836z"/>
		<path fill-rule="evenodd" clip-rule="evenodd" fill="#009688" d="M225.216,192.96c11.848-10.883,20.74,6.473,5.289,9.055
			c6.525,0.897,13.465,11.864,4.699,13.584c-4.602,0.902-5.936-2.933-9.988-3.963c4.236,14.892-15.604,15.353-11.162,0
			c-11.707,10.554-21.104-5.439-5.877-9.055c-2.891-3.188-8.355-2.911-8.811-7.358c-0.779-7.599,9.377-6.811,14.1-2.263
			c1.354-1.714,0.205-5.839,0.588-8.491C218.456,177.429,228.095,183.109,225.216,192.96z"/>
		<path fill-rule="evenodd" clip-rule="evenodd" fill="#009688" d="M87.733,198.053c0,3.02,0,6.037,0,9.056
			c4.446-0.708,5.365-4.593,9.989-3.961c8.685,1.187,3.479,12.385-4.113,13.018c2.929,2.988,8.082,2.769,8.813,6.791
			c1.516,8.356-9.269,7.284-14.101,2.83c3.255,13.938-14.992,15.859-11.163,0c-5.349,3.979-15.423,5.59-14.688-2.265
			c0.399-4.256,5.075-4.672,8.814-6.791c-6.283-1.147-13.469-11.866-4.701-13.583c4.469-0.877,6.158,2.792,9.988,3.961
			C74.96,198.625,81.884,190.945,87.733,198.053z"/>
		<path fill-rule="evenodd" clip-rule="evenodd" fill="#009688" d="M160.587,232.578c11.848-10.881,20.742,6.473,5.289,9.055
			c6.225,1.26,13.377,11.884,4.699,13.584c-4.602,0.902-5.934-2.931-9.988-3.961c4.293,14.945-15.615,15.341-11.165,0
			c-11.702,10.555-21.103-5.44-5.873-9.058c-2.893-3.188-8.358-2.909-8.813-7.356c-0.777-7.599,9.381-6.81,14.102-2.264
			c1.355-1.712,0.206-5.837,0.585-8.491C153.827,217.048,163.466,222.729,160.587,232.578z"/>
		<path fill-rule="evenodd" clip-rule="evenodd" fill="#009688" d="M222.233,243.763c0,3.019,0,6.037,0,9.056
			c4.445-0.708,5.363-4.595,9.988-3.963c8.684,1.188,3.479,12.386-4.113,13.018c2.932,2.99,8.084,2.768,8.814,6.794
			c1.516,8.353-9.271,7.283-14.1,2.827c3.254,13.936-14.994,15.86-11.166,0c-5.35,3.98-15.422,5.59-14.688-2.262
			c0.4-4.259,5.076-4.674,8.816-6.793c-6.285-1.146-13.469-11.865-4.703-13.584c4.467-0.876,6.158,2.792,9.986,3.963
			C209.458,244.334,216.386,236.655,222.233,243.763z"/>
	</g>
</g>
</svg>
