<?xml version="1.0" encoding="utf-8"?>
<!-- Generator: Adobe Illustrator 15.1.0, SVG Export Plug-In . SVG Version: 6.00 Build 0)  -->
<!DOCTYPE svg PUBLIC "-//W3C//DTD SVG 1.1//EN" "http://www.w3.org/Graphics/SVG/1.1/DTD/svg11.dtd">
<svg version="1.1" id="Layer_1" xmlns="http://www.w3.org/2000/svg" xmlns:xlink="http://www.w3.org/1999/xlink" x="0px" y="0px"
	 width="200px" height="200px" viewBox="50 46.833 200 200" enable-background="new 50 46.833 200 200" xml:space="preserve">
<path fill="#009688" d="M150.008,130.865c-8.813,0-15.983,7.17-15.983,15.984s7.169,15.98,15.983,15.98
	c8.814,0,15.984-7.166,15.984-15.98S158.822,130.865,150.008,130.865z M150.008,150.045c-1.76,0-3.197-1.436-3.197-3.195
	c0-1.762,1.437-3.197,3.197-3.197c1.763,0,3.198,1.436,3.198,3.197C153.206,148.609,151.771,150.045,150.008,150.045z"/>
<path fill="#009688" d="M150.26,49.202c-3.53,0-6.394,2.864-6.394,6.393v51.148c0,3.529,2.864,6.393,6.394,6.393
	c3.527,0,6.391-2.864,6.391-6.393V55.595C156.651,52.066,153.787,49.202,150.26,49.202z"/>
<path fill="#009688" d="M235.877,193.607c1.764-3.061,0.719-6.969-2.34-8.732l-44.294-25.576c-3.057-1.766-6.973-0.717-8.734,2.34
	c-1.765,3.061-0.719,6.971,2.341,8.736l44.294,25.574c1.006,0.584,2.106,0.859,3.19,0.859
	C232.543,196.809,234.694,195.662,235.877,193.607z"/>
<path fill="#009688" d="M120.022,161.643c-1.761-3.059-5.673-4.109-8.733-2.34l-44.295,25.574c-3.059,1.764-4.104,5.674-2.34,8.732
	c1.187,2.049,3.334,3.197,5.543,3.197c1.084,0,2.185-0.279,3.191-0.861l44.294-25.572
	C120.738,168.609,121.786,164.699,120.022,161.643z"/>
<circle fill="#F0F3BD" cx="150.008" cy="146.848" r="8.632"/>
</svg>
