<?xml version="1.0" encoding="utf-8"?>
<!-- Generator: Adobe Illustrator 15.1.0, SVG Export Plug-In . SVG Version: 6.00 Build 0)  -->
<!DOCTYPE svg PUBLIC "-//W3C//DTD SVG 1.1//EN" "http://www.w3.org/Graphics/SVG/1.1/DTD/svg11.dtd">
<svg version="1.1" id="Layer_1" xmlns="http://www.w3.org/2000/svg" xmlns:xlink="http://www.w3.org/1999/xlink" x="0px" y="0px"
	 width="300px" height="300px" viewBox="0 0 300 300" enable-background="new 0 0 300 300" xml:space="preserve">
<g>
	<g>
		<path fill-rule="evenodd" clip-rule="evenodd" fill="#009688" d="M229.294,40.646c40.787,0.446,68.119,26.605,70.537,63.119
			c2.627,39.702-25.787,67.144-60.543,70.863c-12.838,1.375-27,0.597-42.324,0.597c-27.32,0-56.628,0-86.406,0
			c-28.493,0-62.671,3.236-80.531-5.956c-15.952-8.211-30.517-27.027-28.802-51.806c2.233-32.262,32.316-57.871,70.538-47.639
			C82.424,32.967,107.594,2.148,152.88,0.152C189.386-1.458,213.187,18.187,229.294,40.646z M89.984,74.587
			c-1.942,9.508-0.745,18.159-8.817,19.653c-5.654,1.044-6.519-1.849-9.405-3.574c-19.058-11.387-41.9,0.688-48.789,14.887
			c-9.035,18.62,1.585,39.957,14.695,47.043c13.297,7.188,36.664,4.168,59.369,4.168c30.071,0,63.87,0,94.051,0
			c16.619,0,33.496,1.482,47.609,0c16.748-1.758,30.188-13.645,36.445-23.819c9.025-14.672,6.938-37.728,0-49.424
			c-5.227-8.813-19.648-23.125-39.971-23.819c-3.434-0.12-9.576,2.391-14.695,0.596c-5.357-1.881-10.551-14.518-12.934-17.271
			c-11.299-13.053-31.328-25.235-57.604-22.627C117.961,23.573,95.756,46.335,89.984,74.587z"/>
		<path fill-rule="evenodd" clip-rule="evenodd" fill="#F0F3BD" d="M149.94,20.399c26.276-2.608,46.305,9.574,57.604,22.627
			c2.383,2.753,7.576,15.39,12.934,17.271c5.119,1.795,11.262-0.716,14.695-0.596c20.322,0.694,34.744,15.006,39.971,23.819
			c6.938,11.696,9.025,34.752,0,49.424c-6.258,10.175-19.697,22.062-36.445,23.819c-14.113,1.482-30.99,0-47.609,0
			c-30.182,0-63.98,0-94.051,0c-22.705,0-46.072,3.02-59.369-4.168c-13.11-7.086-23.73-28.423-14.695-47.043
			c6.888-14.198,29.731-26.273,48.789-14.887c2.886,1.726,3.75,4.618,9.405,3.574c8.072-1.494,6.875-10.146,8.817-19.653
			C95.756,46.335,117.961,23.573,149.94,20.399z"/>
	</g>
	<path fill-rule="evenodd" clip-rule="evenodd" fill="#009688" d="M145.17,128.48c1.875-0.34,2.687,0.399,4.042,0.586
		c2.149,16.89-5.463,33.778-5.773,52.053c6.435,4.012,17.449,2.339,27.714,2.339c4.971,0,10.211,0,15.008,0
		c4.535,0,9.873-1.306,12.703,1.756c0.146,6.777-5.957,11.824-9.814,16.377c-24.236,28.603-49.542,58.07-74.479,87.146
		c-3.605,4.203-7.153,12.484-14.433,11.111c-1.605-8.154,3.944-15.609,6.928-22.811c6.042-14.573,12.404-29.448,18.475-44.45
		c3.003-7.422,6.815-14.897,7.505-22.811c-5.229-3.09-14.963-1.757-24.825-1.757c-6.933,0-21.678,2.048-23.093-2.921
		c-0.779-2.733,4.685-8.446,6.35-10.527C108.654,173.091,129.053,147.677,145.17,128.48z"/>
</g>
</svg>
