<?xml version="1.0" encoding="utf-8"?>
<!-- Generator: Adobe Illustrator 15.1.0, SVG Export Plug-In . SVG Version: 6.00 Build 0)  -->
<!DOCTYPE svg PUBLIC "-//W3C//DTD SVG 1.1//EN" "http://www.w3.org/Graphics/SVG/1.1/DTD/svg11.dtd">
<svg version="1.1" id="Layer_1" xmlns="http://www.w3.org/2000/svg" xmlns:xlink="http://www.w3.org/1999/xlink" x="0px" y="0px"
	 width="300px" height="300px" viewBox="0 0 300 300" enable-background="new 0 0 300 300" xml:space="preserve">
<g>
	<path fill-rule="evenodd" clip-rule="evenodd" fill="#F0F3BD" d="M149.082,19.332c26.757-2.479,47.147,9.103,58.654,21.507
		c2.425,2.617,7.714,14.627,13.169,16.416c5.211,1.706,11.466-0.68,14.964-0.566c20.689,0.659,35.377,14.263,40.697,22.64
		c7.064,11.116,9.191,33.03,0,46.976c-6.374,9.672-20.058,20.969-37.109,22.639c-14.369,1.41-31.554,0-48.479,0
		c-30.73,0-65.144,0-95.764,0c-23.116,0-46.91,2.87-60.448-3.961c-13.349-6.735-24.162-27.015-14.963-44.713
		c7.014-13.494,30.272-24.972,49.677-14.149c2.939,1.64,3.818,4.391,9.575,3.396c8.221-1.42,7.002-9.642,8.979-18.68
		C93.912,43.982,116.521,22.349,149.082,19.332z"/>
	<path fill-rule="evenodd" clip-rule="evenodd" fill="#009688" d="M228.862,38.575c40.903,0.424,68.315,25.288,70.739,59.994
		c2.636,37.735-25.862,63.817-60.718,67.354c-12.872,1.307-27.077,0.566-42.443,0.566c-27.4,0-56.792,0-86.655,0
		c-28.574,0-62.852,3.074-80.762-5.66c-15.998-7.806-30.604-25.688-28.886-49.24c2.24-30.664,32.409-55.003,70.74-45.278
		c10.693-35.032,35.935-64.325,81.351-66.223C188.84-1.441,212.71,17.23,228.862,38.575z M89.152,70.836
		c-1.947,9.038-0.746,17.26-8.843,18.68c-5.669,0.994-6.537-1.757-9.432-3.396c-19.112-10.822-42.02,0.655-48.928,14.149
		c-9.061,17.698,1.59,37.978,14.737,44.713c13.335,6.831,36.77,3.961,59.538,3.961c30.158,0,64.052,0,94.32,0
		c16.67,0,33.594,1.41,47.747,0c16.795-1.67,30.272-12.967,36.549-22.639c9.055-13.945,6.959-35.859,0-46.976
		c-5.238-8.377-19.703-21.98-40.083-22.64c-3.445-0.113-9.605,2.272-14.736,0.566c-5.374-1.789-10.583-13.799-12.972-16.416
		c-11.334-12.404-31.417-23.985-57.771-21.507C117.21,22.349,94.94,43.982,89.152,70.836z"/>
</g>
<g>
	<path fill-rule="evenodd" clip-rule="evenodd" fill="#009688" d="M93.369,195.165c-0.018,0.002,0.2-0.608,0.64-0.64
		c15.887-1.166,26.605,6.934,40.904,7.031c8.342,0.057,16.598-4.813,24.927-6.392c15.289-2.898,26.243,3.345,38.987,5.752
		c14.578,2.756,20.438-4.829,36.431-6.392c13.643-1.33,32.365,1.68,31.319,12.144c-1.155,11.533-18.547,2.364-28.762,3.198
		c-11.06,0.901-20.151,6.877-31.319,7.028c-12.153,0.166-20.213-5.951-31.317-7.028c-15.164-1.474-24.079,6.79-38.987,7.028
		c-16.44,0.266-25.082-8.505-40.268-7.028c-8.575,0.83-16.259,6.163-26.844,7.028c-12.8,1.049-38.081-4.772-28.123-16.618
		c4.586-5.451,13.938,1.148,23.01,1.279C76.229,201.731,85.604,196.098,93.369,195.165z"/>
	<path fill-rule="evenodd" clip-rule="evenodd" fill="#009688" d="M96.563,225.205c-0.104,0.009,0.288-0.599,0.638-0.64
		c17.114-2.016,25.036,8.758,42.824,7.031c11.548-1.121,18.453-6.844,30.04-7.031c13.233-0.213,23.367,8.356,39.627,7.031
		c8.852-0.723,18.617-6.731,30.039-7.031c14.398-0.375,33.539,5.715,26.206,15.979c-4.536,6.348-15.193-0.519-23.648-0.64
		c-8.205-0.116-15.708,4.645-24.929,6.392c-14.852,2.818-26.006-3.239-39.627-5.752c-17.506-3.229-27.761,7.777-46.016,6.392
		c-8.879-0.673-18.215-6.941-30.68-7.031c-15.908-0.112-23.334,8.963-42.183,7.031c-7.929-0.812-26.901-6.815-17.259-16.618
		c5.379-5.466,17.996,1.977,26.846,1.279C79.358,230.735,87.718,225.906,96.563,225.205z"/>
</g>
</svg>
