<svg version="1.1" id="Layer_1" xmlns="http://www.w3.org/2000/svg" xmlns:xlink="http://www.w3.org/1999/xlink" x="0px" y="0px"
	 width="300px" height="300px" viewBox="0 0 300 300" enable-background="new 0 0 300 300" xml:space="preserve">
<g>
	<defs>
		<rect id="SVGID_1_" x="33.666" y="-15.5" width="232.024" height="315.333"/>
	</defs>
	<clipPath id="SVGID_2_">
		<use xlink:href="#SVGID_1_"  overflow="visible"/>
	</clipPath>
	<path clip-path="url(#SVGID_2_)" fill="#009688" d="M257.879,301.028h-93.4l-6.865-157.861c-0.163-3.829-3.317-6.849-7.153-6.849
		s-6.989,3.02-7.154,6.849l-6.864,157.861h-93.4c-3.952,0-7.161,3.209-7.161,7.16c0,3.953,3.209,7.161,7.161,7.161h214.838
		c3.953,0,7.162-3.208,7.162-7.161C265.041,304.237,261.832,301.028,257.879,301.028z"/>
	<g clip-path="url(#SVGID_2_)">
		<g>
			<path fill="#009688" d="M150.459,71.868c5.473,0,9.914-3.209,9.914-7.162V7.415c0-3.951-4.441-7.161-9.914-7.161
				c-5.469,0-9.91,3.21-9.91,7.161v57.291C140.549,68.659,144.99,71.868,150.459,71.868z"/>
			<g>
				<path fill="#009688" d="M150.461,125.996c12.488,0,22.65-10.161,22.65-22.651s-10.162-22.652-22.65-22.652
					c-12.49,0-22.65,10.162-22.65,22.652S137.971,125.996,150.461,125.996z M150.461,98.814c2.496,0,4.531,2.034,4.531,4.53
					c0,2.497-2.035,4.531-4.531,4.531s-4.531-2.034-4.531-4.531C145.93,100.849,147.965,98.814,150.461,98.814z"/>
				<circle fill="#F0F3BD" cx="150.242" cy="103.965" r="11.299"/>
			</g>
		</g>
		<g>
			<path fill="#009688" d="M68.264,161.1l49.422-28.978c3.408-1.999,3.931-7.452,1.166-12.17c-2.77-4.722-7.784-6.929-11.193-4.931
				l-49.422,28.978c-3.41,1.999-3.932,7.454-1.164,12.175C59.839,160.893,64.853,163.1,68.264,161.1z"/>
			<path fill="#009688" d="M243.85,156.174c2.768-4.721,2.246-10.175-1.164-12.175l-49.422-28.977
				c-3.409-1.999-8.424,0.209-11.193,4.93c-2.765,4.718-2.242,10.171,1.166,12.17l49.422,28.978
				C236.069,163.1,241.083,160.893,243.85,156.174z"/>
		</g>
	</g>
</g>
</svg>
