<?xml version="1.0" encoding="utf-8"?>
<!-- Generator: Adobe Illustrator 15.1.0, SVG Export Plug-In . SVG Version: 6.00 Build 0)  -->
<!DOCTYPE svg PUBLIC "-//W3C//DTD SVG 1.1//EN" "http://www.w3.org/Graphics/SVG/1.1/DTD/svg11.dtd">
<svg version="1.1" id="Layer_1" xmlns="http://www.w3.org/2000/svg" xmlns:xlink="http://www.w3.org/1999/xlink" x="0px" y="0px"
	 width="300px" height="300px" viewBox="0 0 300 300" enable-background="new 0 0 300 300" xml:space="preserve">
<g>
	<path fill-rule="evenodd" clip-rule="evenodd" fill="#009688" d="M19.444,183.68c-17.618-22.02-10.664-62.042,6.482-79.934
		c8.042-8.393,19.877-15.105,32.409-17.216c3.32-0.561,8.508,0.77,12.373-0.617c4.173-1.495,9.151-11.865,13.554-15.986
		c11.528-10.792,26.513-18.375,44.782-20.291c11.931-19.399,27.664-35.304,54.801-37.508c37.979-3.084,61.363,22.856,70.119,52.881
		c27.568,7.067,46.463,48.097,29.463,79.321c-0.74,1.355-2.635,4.729-4.713,7.377c-1.08,1.371-5.887,4.209-5.893,5.533
		c-0.008,1.494,6.375,6.066,7.07,6.764c10.482,10.551,18.855,25.238,20.033,45.502c2.32,39.908-26.492,70.48-61.871,73.17
		c-28.645,2.176-62.146,0-94.28,0c-31.744,0-64.737,2.568-94.278,0C21.807,280.271,0,256.998,0,226.723
		C0,206.461,9.04,195.445,19.444,183.68z M211.539,108.049c1.27,4.775,0.809,10.835,2.947,16.603
		c1.268,3.413,5.139,6.047,8.25,9.838c2.828,3.451,5.537,8.943,8.252,9.84c2.256,0.744,6.629-0.309,10.012,0
		c4.48,0.408,10.289,3.609,14.143,3.072c4.887-0.68,9.547-7.932,11.787-11.682c8.998-15.086,4.209-36.924-7.07-46.117
		c-5.211-4.247-14.52-5.554-18.268-7.994c-5.094-3.313-5.914-15.739-8.248-20.906c-6.701-14.817-19.436-27.623-38.895-29.515
		c-15.461-1.502-29.27,5.217-37.122,12.297c-2.199,1.987-5.544,5.313-4.713,6.763C183.426,58.488,203.617,78.259,211.539,108.049z
		 M191.506,109.894c0.658-0.063,0.916,0.896,1.18,0c-0.359-0.033-0.701-0.092-0.592-0.614c-10.607-25.569-28.23-44.683-62.46-41.197
		c-15.574,1.585-27.419,9.484-35.354,17.831c-5.542,5.83-8.638,17.155-14.732,19.063c-4.967,1.557-11.754-0.65-17.088,0
		c-30.849,3.76-45.872,44.312-25.928,69.479c8.667-4.475,25.986-3.977,34.768,0C78.228,123.736,137.693,84.867,191.506,109.894z
		 M90.744,174.455c-2.491,9.865-0.866,22.145-9.428,23.984c-4.744,1.016-7.124-1.461-10.016-3.078
		c-19.766-11.02-41.333-0.855-48.909,15.373c-1.227,2.631-3.595,7.605-3.535,16.602c0.124,19.01,14.861,34.492,32.998,36.281
		c22.547,2.217,45.386,0,70.12,0c23.435,0,47.046,0,70.712,0c25.033,0,47.756,2.488,63.637-6.766
		c23.658-13.783,34.166-45.844,17.678-71.326c-6.039-9.336-20.146-22.08-38.303-22.75c-5.012-0.186-8.457,2.143-13.553,0.611
		c-6.383-1.918-11.746-14.972-14.73-18.444c-11.354-13.204-31.043-25.256-57.155-22.75
		C118.694,125.22,97.403,148.083,90.744,174.455z"/>
	<path fill-rule="evenodd" clip-rule="evenodd" fill="#F0F3BD" d="M152.614,50.25c-0.831-1.451,2.514-4.776,4.713-6.763
		c7.853-7.08,21.661-13.8,37.122-12.297c19.459,1.892,32.193,14.697,38.895,29.515c2.334,5.167,3.154,17.592,8.248,20.906
		c3.748,2.439,13.057,3.747,18.268,7.994c11.279,9.193,16.068,31.031,7.07,46.117c-2.24,3.75-6.9,11.002-11.787,11.682
		c-3.854,0.537-9.662-2.664-14.143-3.072c-3.383-0.309-7.756,0.744-10.012,0c-2.715-0.896-5.424-6.389-8.252-9.84
		c-3.111-3.791-6.982-6.425-8.25-9.838c-2.139-5.768-1.678-11.827-2.947-16.603C203.617,78.259,183.426,58.488,152.614,50.25z"/>
	<path fill-rule="evenodd" clip-rule="evenodd" fill="#F0F3BD" d="M150.259,122.193c26.112-2.506,45.802,9.546,57.155,22.75
		c2.984,3.472,8.348,16.526,14.73,18.444c5.096,1.531,8.541-0.797,13.553-0.611c18.156,0.67,32.264,13.414,38.303,22.75
		c16.488,25.482,5.98,57.543-17.678,71.326c-15.881,9.254-38.604,6.766-63.637,6.766c-23.666,0-47.277,0-70.712,0
		c-24.734,0-47.573,2.217-70.12,0c-18.137-1.789-32.875-17.271-32.998-36.281c-0.06-8.996,2.308-13.971,3.535-16.602
		c7.576-16.229,29.143-26.393,48.909-15.373c2.893,1.617,5.272,4.094,10.016,3.078c8.562-1.84,6.937-14.119,9.428-23.984
		C97.403,148.083,118.694,125.22,150.259,122.193z"/>
	<path fill-rule="evenodd" clip-rule="evenodd" fill="#F0F3BD" d="M71.299,174.455c-8.781-3.977-26.101-4.475-34.768,0
		c-19.944-25.167-4.921-65.719,25.928-69.479c5.334-0.65,12.121,1.557,17.088,0c6.094-1.908,9.19-13.233,14.732-19.063
		c7.935-8.347,19.78-16.245,35.354-17.831c34.229-3.485,51.853,15.628,62.46,41.197c-0.109,0.522,0.232,0.581,0.592,0.614
		c-0.264,0.896-0.521-0.063-1.18,0C137.693,84.867,78.228,123.736,71.299,174.455z"/>
</g>
</svg>
