<?xml version="1.0" encoding="utf-8"?>
<!-- Generator: Adobe Illustrator 15.1.0, SVG Export Plug-In . SVG Version: 6.00 Build 0)  -->
<!DOCTYPE svg PUBLIC "-//W3C//DTD SVG 1.1//EN" "http://www.w3.org/Graphics/SVG/1.1/DTD/svg11.dtd">
<svg version="1.1" id="Layer_1" xmlns="http://www.w3.org/2000/svg" xmlns:xlink="http://www.w3.org/1999/xlink" x="0px" y="0px"
	 width="300px" height="300px" viewBox="0 0 300 300" enable-background="new 0 0 300 300" xml:space="preserve">
<g>
	<path fill-rule="evenodd" clip-rule="evenodd" fill="#F0F3BD" d="M202.271,144.576c-13.881-7.356-31.855-14.07-52.396-12.56
		c-21.169,1.557-39.275,11.112-50.63,19.413c-4.758-36.211,18.149-64.556,56.518-61.089
		C183.539,92.851,201.987,114.685,202.271,144.576z"/>
	<g>
		<path fill-rule="evenodd" clip-rule="evenodd" fill="#009688" d="M147.52,1.85c14.458-4.192,12.364,11.777,12.364,26.262
			c0,11.324,2.956,29.417-12.364,25.691c-6.283-1.53-6.475-9.762-6.475-20.553C141.045,19.456,138.042,4.597,147.52,1.85z"/>
		<path fill-rule="evenodd" clip-rule="evenodd" fill="#009688" d="M53.325,40.1c7.901-1.685,15.325,8.011,21.194,13.704
			c5.543,5.375,15.182,13.125,15.307,18.838c0.088,4.029-2.695,9.135-9.419,9.135c-7.594,0-12.904-9.088-18.84-14.843
			c-4.756-4.613-15.109-9.927-15.306-18.27C46.139,43.5,49.763,40.86,53.325,40.1z"/>
		<path fill-rule="evenodd" clip-rule="evenodd" fill="#009688" d="M243.481,40.1c4.49-0.863,11.029,1.378,11.186,7.993
			c0.174,7.365-11.676,15.319-15.307,18.841c-4.039,3.917-12.184,14.991-19.428,14.843c-4.196-0.085-8.668-3.292-8.83-8.563
			c-0.221-7.128,9.447-13.159,14.128-17.699C231.298,49.633,236.528,41.439,243.481,40.1z"/>
		<path fill-rule="evenodd" clip-rule="evenodd" fill="#009688" d="M229.94,170.266c40.519-0.239,69.877,26.768,70.059,63.944
			c0.171,35.32-26.593,61.975-59.461,65.083c-15.949,1.509-32.301,0-48.862,0c-31.025,0-64.569,0-96.551,0
			c-16.791,0-33.651,1.592-48.275,0c-27.043-2.944-48.934-26.302-45.92-57.663c2.958-30.781,34.466-53.277,70.058-43.389
			c3.332-11.61,7.574-22.342,14.128-30.829c-19.648-46.002,13.958-92.478,59.461-95.911c48.103-3.63,84.334,36.234,74.768,85.064
			C221.071,160.649,226.468,165.987,229.94,170.266z M155.763,90.341c-38.368-3.467-61.275,24.878-56.518,61.089
			c11.354-8.301,29.461-17.856,50.63-19.413c20.54-1.511,38.515,5.203,52.396,12.56C201.987,114.685,183.539,92.851,155.763,90.341z
			 M208.158,173.123c-11.918-13.375-31.291-26.161-57.694-23.978c-31.732,2.62-53.628,22.449-60.639,49.667
			c-2.445,9.491-1.41,20.647-9.419,21.694c-4.517,0.591-7.323-1.819-10.598-3.423c-23.887-11.72-51.392,4.931-51.219,29.684
			c0.11,15.613,10.295,28.34,25.315,32.545c11.646,3.259,31.908,1.141,47.686,1.141c33.262,0,67.01,0,98.905,0
			c17.205,0,34.353,1.646,49.452,0c31.095-3.386,52.24-36.707,35.911-67.366c-7.02-13.182-26.396-29.014-54.75-23.98
			C214.754,185.629,212.745,178.27,208.158,173.123z"/>
		<path fill-rule="evenodd" clip-rule="evenodd" fill="#009688" d="M13.293,132.017c4.401-1.271,14.244-0.57,24.137-0.57
			c9.349,0,27.178-2.043,23.548,11.988c-2.028,7.843-16.47,6.281-27.669,6.281c-11.21,0-24.699,2.057-26.492-6.852
			C5.356,135.612,10.245,132.896,13.293,132.017z"/>
		<path fill-rule="evenodd" clip-rule="evenodd" fill="#009688" d="M247.603,132.017c0.13-0.032,0.073-0.534,0.59-0.57
			c12.541-0.894,43.854-3.405,45.92,6.85c2.754,13.688-11.66,11.42-27.082,11.42c-12.902,0-28.507,2.767-27.081-10.277
			C240.485,134.538,243.368,133.054,247.603,132.017z"/>
	</g>
	<path fill-rule="evenodd" clip-rule="evenodd" fill="#F0F3BD" d="M221.11,189.106c28.354-5.033,47.73,10.799,54.75,23.98
		c16.329,30.659-4.816,63.98-35.911,67.366c-15.1,1.646-32.247,0-49.452,0c-31.896,0-65.643,0-98.905,0
		c-15.778,0-36.04,2.118-47.686-1.141c-15.021-4.205-25.206-16.932-25.315-32.545c-0.173-24.753,27.332-41.403,51.219-29.684
		c3.275,1.604,6.081,4.014,10.598,3.423c8.009-1.047,6.974-12.203,9.419-21.694c7.011-27.218,28.906-47.047,60.639-49.667
		c26.403-2.184,45.776,10.603,57.694,23.978C212.745,178.27,214.754,185.629,221.11,189.106z"/>
</g>
</svg>
