<?xml version="1.0" encoding="utf-8"?>
<!-- Generator: Adobe Illustrator 15.1.0, SVG Export Plug-In . SVG Version: 6.00 Build 0)  -->
<!DOCTYPE svg PUBLIC "-//W3C//DTD SVG 1.1//EN" "http://www.w3.org/Graphics/SVG/1.1/DTD/svg11.dtd">
<svg version="1.1" id="Layer_1" xmlns="http://www.w3.org/2000/svg" xmlns:xlink="http://www.w3.org/1999/xlink" x="0px" y="0px"
	 width="300px" height="150px" viewBox="0.25 149.5 300 150" enable-background="new 0.25 149.5 300 150" xml:space="preserve">
<g>
	<path fill="#009688" d="M206.685,259.444c-10.238-14.941-32.224-30.699-59.132-28.99c-20.611,1.31-37.316,11.469-46.768,22.243
		c-8.516,9.712-17.808,26.89-17.31,47.803h134.204C217.779,285.563,213.965,270.059,206.685,259.444z"/>
	<path fill="#FCFCC8" d="M195.334,266.569c-8.168-11.922-25.705-24.091-47.171-22.729c-16.44,1.048-29.767,8.555-37.306,17.154
		c-6.797,7.746-14.206,20.863-13.811,37.545h107.055C204.182,286.893,201.141,275.039,195.334,266.569z"/>
	<path fill="#009688" d="M150.779,211.156c10.68,0.133,8.597-11.522,8.597-24.729c0-12.961,2.077-29.261-11.287-25.266
		c-7.901,2.363-5.375,11.963-5.375,25.266C142.714,198.983,140.945,211.03,150.779,211.156z"/>
	<path fill="#009688" d="M66.38,224.056c4.953,4.956,10.332,14.48,17.742,14.513c4.77,0.023,9.102-3.534,8.06-10.211
		c-0.878-5.642-10.187-11.809-15.049-16.665c-6.138-6.136-11.504-15.004-18.814-13.441c-3.398,0.729-6.521,3.044-6.452,8.067
		C51.975,214.175,62.656,220.335,66.38,224.056z"/>
	<path fill="#009688" d="M219.05,238.568c5.946-0.625,12.625-11.011,16.663-15.048c4.19-4.193,14.673-10.714,14.513-17.742
		c-0.139-6.117-6.057-8.353-10.21-7.527c-6.437,1.278-11.958,9.806-17.205,15.052c-3.861,3.863-13.995,10.421-13.436,17.741
		C209.676,235.025,213.426,239.167,219.05,238.568z"/>
	<path fill="#009688" d="M63.155,292.231c-3.175-3.821-15.121-3.179-19.354-3.179c-8.403,0-17.764,0.063-22.575,1.274
		c-3.729,0.939-6.939,7.185-6.758,10.173h50.129C65.01,297.512,64.59,293.965,63.155,292.231z"/>
	<path fill="#009688" d="M284.093,290.621c-5.529-3.187-35.067-2.196-39.776-1.035c-4.257,1.051-7.322,3.279-6.991,9.341
		c0.017,0.305,0.07,1.573,0.107,1.573h50.251C288.188,297.512,286.745,292.151,284.093,290.621z"/>
</g>
</svg>
