<?xml version="1.0" encoding="utf-8"?>
<!-- Generator: Adobe Illustrator 15.1.0, SVG Export Plug-In . SVG Version: 6.00 Build 0)  -->
<!DOCTYPE svg PUBLIC "-//W3C//DTD SVG 1.1//EN" "http://www.w3.org/Graphics/SVG/1.1/DTD/svg11.dtd">
<svg version="1.1" id="Layer_1" xmlns="http://www.w3.org/2000/svg" xmlns:xlink="http://www.w3.org/1999/xlink" x="0px" y="0px"
	 width="300px" height="300px" viewBox="0 0 300 300" enable-background="new 0 0 300 300" xml:space="preserve">
<g>
	<path fill-rule="evenodd" clip-rule="evenodd" fill="#009688" d="M146.629,0.674c14.672-4.384,12.396,13.506,12.396,27.727
		c0,14.497,2.281,27.286-9.445,27.138c-10.797-0.137-8.852-13.357-8.852-27.138C140.728,13.799,137.954,3.268,146.629,0.674z"/>
	<path fill-rule="evenodd" clip-rule="evenodd" fill="#009688" d="M48.066,41.38c8.026-1.717,13.92,8.013,20.657,14.748
		c5.336,5.336,15.561,12.097,16.525,18.289c1.143,7.327-3.613,11.235-8.853,11.209c-8.134-0.041-14.037-10.492-19.476-15.928
		c-4.086-4.086-15.814-10.847-15.935-19.469C40.907,44.717,44.338,42.178,48.066,41.38z"/>
	<path fill-rule="evenodd" clip-rule="evenodd" fill="#009688" d="M247.552,41.38c4.564-0.906,11.06,1.544,11.214,8.26
		c0.177,7.711-11.334,14.867-15.935,19.466c-4.437,4.436-11.77,15.83-18.298,16.52c-6.174,0.652-10.289-3.887-10.621-8.259
		c-0.613-8.036,10.516-15.232,14.754-19.469C234.428,52.14,240.491,42.781,247.552,41.38z"/>
	<path fill-rule="evenodd" clip-rule="evenodd" fill="#009688" d="M146.039,76.187c29.543-1.875,53.677,14.875,64.921,31.268
		c13.829,20.161,16.346,54.262,4.721,76.693c-14.272,27.546-47.925,46.313-83.216,37.759c-29.411-7.132-54.263-31.53-56.66-67.255
		c-1.643-24.49,9.103-43.714,18.888-54.867C105.069,87.958,123.409,77.625,146.039,76.187z M104.134,117.484
		c-3.971,5.557-10.062,18.623-10.033,32.447c0.069,31.616,24.79,55.706,56.069,55.454c32.35-0.261,58.544-27.137,54.888-62.534
		c-1.792-17.342-13.72-33.245-25.969-40.707c-9.394-5.724-22.459-8.706-36.591-7.08C125.06,97.074,111.706,106.893,104.134,117.484z
		"/>
	<path fill-rule="evenodd" clip-rule="evenodd" fill="#F0F3BD" d="M142.499,95.065c14.132-1.626,27.197,1.356,36.591,7.08
		c12.249,7.461,24.177,23.364,25.969,40.707c3.656,35.397-22.538,62.273-54.888,62.534c-31.279,0.252-56-23.838-56.069-55.454
		c-0.029-13.824,6.063-26.89,10.033-32.447C111.706,106.893,125.06,97.074,142.499,95.065z"/>
	<path fill-rule="evenodd" clip-rule="evenodd" fill="#009688" d="M7.343,141.082c5.281-1.333,15.559-0.591,24.788-0.591
		c4.647,0,17.764-1.246,21.247,2.951c2.818,3.394,2.191,10.976-1.181,13.569c-3.907,3.005-42.32,4.124-48.396,0.588
		C-3.888,153.126,1.093,142.659,7.343,141.082z"/>
	<path fill-rule="evenodd" clip-rule="evenodd" fill="#009688" d="M252.274,141.082c5.175-1.276,37.602-2.908,43.675,0.59
		c4.776,2.752,6.02,12.425,0,15.927c-4.87,2.835-17.469,1.182-25.968,1.182c-13.226,0-24.813,2.075-25.38-8.259
		C244.236,143.863,247.603,142.234,252.274,141.082z"/>
	<path fill-rule="evenodd" clip-rule="evenodd" fill="#009688" d="M75.805,214.235c2.311-0.216,8.273,1.004,9.443,5.899
		c2.199,9.194-9.775,16.851-14.163,21.238c-3.196,3.194-13.304,15.991-18.296,17.108c-6.977,1.559-11.723-3.01-11.805-8.848
		c-0.099-7.026,9.875-14.596,14.754-19.471C61.267,224.639,68.644,214.9,75.805,214.235z"/>
	<path fill-rule="evenodd" clip-rule="evenodd" fill="#009688" d="M222.764,214.235c6.683-0.473,13.521,9.387,20.067,15.928
		c5.228,5.228,15.514,12.746,15.935,18.289c0.331,4.354-2.663,9.174-6.491,10.029c-9.911,2.217-17.472-10.974-21.838-15.339
		c-4.236-4.233-16.524-11.722-16.524-20.058C213.912,216.068,218.726,214.522,222.764,214.235z"/>
	<path fill-rule="evenodd" clip-rule="evenodd" fill="#009688" d="M148.4,244.913c12.878-2.093,10.625,15.183,10.625,28.319
		c0,11.673,1.308,20.43-2.362,24.186c-3.807,3.899-12.117,3.201-14.755-1.179c-2.583-4.294-2.619-41.594-0.59-46.605
		C142.302,247.203,145.255,245.424,148.4,244.913z"/>
</g>
</svg>
