<?xml version="1.0" standalone="no"?>
<!DOCTYPE svg PUBLIC "-//W3C//DTD SVG 20010904//EN"
 "http://www.w3.org/TR/2001/REC-SVG-20010904/DTD/svg10.dtd">
<svg version="1.0" xmlns="http://www.w3.org/2000/svg"
 width="300.000000pt" height="300.000000pt" viewBox="0 0 300.000000 300.000000"
 preserveAspectRatio="xMidYMid meet">
<metadata>
Created by potrace 1.11, written by Peter Selinger 2001-2013
</metadata>
<g transform="translate(0.000000,300.000000) scale(0.100000,-0.100000)"
fill="#000000" stroke="none">
<path d="M1290 2956 c-326 -51 -602 -189 -829 -417 -205 -204 -341 -454 -403
-742 -32 -148 -32 -446 0 -594 62 -288 198 -538 403 -742 209 -210 471 -349
766 -408 112 -22 412 -25 523 -4 296 54 581 203 790 411 208 208 351 481 406
775 28 148 25 412 -5 555 -30 140 -62 235 -121 355 -201 414 -578 705 -1030
796 -124 26 -383 33 -500 15z m254 -592 c13 -12 16 -41 16 -154 0 -139 0 -140
-26 -157 -23 -15 -29 -15 -52 -2 -33 18 -40 50 -38 190 1 97 3 112 20 125 26
18 61 18 80 -2z m-521 -301 c104 -98 106 -102 107 -138 0 -40 -16 -55 -57 -55
-27 0 -46 13 -123 90 -73 73 -90 95 -90 119 0 32 30 61 63 61 10 0 55 -35 100
-77z m1107 57 c35 -35 25 -57 -72 -156 -79 -80 -97 -94 -125 -94 -39 0 -69 36
-58 71 4 12 47 62 95 111 95 95 122 106 160 68z m-438 -228 c136 -67 214 -170
239 -316 39 -229 -82 -433 -294 -498 -102 -31 -228 -23 -318 19 -182 85 -281
270 -249 469 22 134 109 258 223 315 80 41 118 48 233 46 90 -2 107 -5 166
-35z m-772 -341 c21 -6 26 -14 28 -47 5 -63 -8 -68 -163 -69 -145 0 -165 7
-165 55 0 26 20 52 50 63 21 8 220 6 250 -2z m1450 -11 c24 -24 26 -63 4 -84
-12 -13 -41 -16 -154 -16 -136 0 -140 1 -155 24 -23 35 -10 74 29 85 17 5 82
10 144 10 99 1 114 -1 132 -19z m-1252 -432 c7 -7 12 -25 12 -41 0 -24 -18
-48 -87 -119 -48 -49 -98 -91 -110 -94 -36 -9 -73 20 -73 58 0 27 14 46 88
120 77 77 93 88 123 88 19 0 40 -5 47 -12z m939 -80 c99 -98 109 -122 73 -158
-38 -38 -64 -26 -164 73 -83 82 -100 109 -90 140 9 28 22 37 59 37 24 0 47
-17 122 -92z m-507 -107 c5 -11 10 -81 10 -156 0 -135 0 -135 -25 -147 -35
-16 -77 0 -86 32 -4 14 -7 75 -8 135 -1 130 9 155 64 155 24 0 38 -6 45 -19z"/>
<path d="M1399 1797 c-91 -34 -145 -84 -186 -172 -69 -150 -8 -330 138 -410
42 -22 70 -30 130 -33 111 -6 167 15 245 92 70 71 94 126 94 221 0 118 -60
223 -159 279 -47 26 -67 30 -140 33 -55 2 -99 -2 -122 -10z"/>
</g>
</svg>
